<?xml version="1.0" encoding="utf-8"?>
<!-- Generator: Adobe Illustrator 24.1.2, SVG Export Plug-In . SVG Version: 6.00 Build 0)  -->
<svg version="1.1" id="Layer_1" xmlns="http://www.w3.org/2000/svg" xmlns:xlink="http://www.w3.org/1999/xlink" x="0px" y="0px"
	 viewBox="0 0 1030 729.9" style="enable-background:new 0 0 1030 729.9;" xml:space="preserve">
<style type="text/css">
	.st0{fill:#F3272B;}
	.st1{fill:#EBEAEA;}
</style>
<g>
	<rect class="st0" width="1030" height="729.9"/>
	<g>
		<path class="st1" d="M499.5,320.4c-11.4-10.5-22.8-21.1-32.9-33c-6.1-7.2-11.6-14.8-15.5-23.5c-6.2-13.9-5.1-26.9,4.3-39.1
			c6.7-8.8,14.7-16.3,23.2-23.2c10.2-8.3,20.6-16.5,30.8-24.9c3.3-2.7,6.4-5.8,9.5-8.8c18.8-18.4,28.3-39.9,21.6-67
			c2,0.7,2.6,2.2,3.3,3.4c8.6,13.9,9.1,28.6,3.9,43.8c-6.1,17.8-18,31.7-31.2,44.5c-6.1,5.9-12.8,11.2-19.3,16.6
			c-8.2,6.8-15.7,14.2-21.5,23.2c-9.2,14.1-10.1,28.8-2.8,44c3.9,8.1,8.9,15.3,14,22.6c4,5.7,8,11.3,11.2,17.5
			C498.8,317.6,500.1,318.7,499.5,320.4L499.5,320.4z"/>
		<path class="st1" d="M623.7,446.2c3.4-0.6,5,1.9,6.3,4.2c1.4,2.4,0.5,4.8-1.3,6.8c-3.2,3.6-7.4,5.7-11.7,7.6
			c-13.2,5.9-27.2,9.1-41.3,11.7c-44.8,8.1-89.9,9.3-135.2,6.5c-24-1.4-47.8-4.1-71.4-8.1c-4.2-0.7-8.4-1.7-12.3-3.7
			c-6.3-3.2-6.9-7.4-2-12.3c2.7-2.7,5.9-4.7,9.3-6.4c12-6.1,24.7-9.9,38-11.1c4.1-0.4,8.3-0.4,13,1.8c-4.5,0.7-8.2,1.1-11.9,1.9
			c-7.7,1.6-15.1,4-21.9,8c-2,1.2-4.4,2.4-4.1,5.2c0.3,2.5,2.8,3.2,4.9,4.1c11.5,4.5,23.6,6.5,35.8,7.8
			c55.4,5.7,110.6,4.2,165.7-3.2c10.3-1.4,20.6-3.3,30.5-6.8c3.3-1.2,6.6-2.6,9.1-5.2c3-3,3.1-5.4,0.4-8.9L623.7,446.2z"/>
		<path class="st1" d="M588.3,182.9c-1,1.8-2.6,2.2-3.9,3c-13.1,7.9-26,16-37.9,25.6c-6.3,5.1-12.3,10.6-17,17.2
			c-6.9,9.6-7.6,19.5-2,29.8c3.4,6.4,7.7,12.1,11.9,17.9c9.3,13,9.2,25.1-0.4,37.9c-5.3,7.1-12.1,12.6-19.4,17.5
			c-0.9,0.6-1.8,1.2-2.9,0.6c1.3-1.7,2.8-3.4,4-5.3c7.9-11.6,7.3-23.2-1.6-33.9c-4.7-5.6-9.1-11.4-12.4-18
			c-9.2-18.1-7.3-35.2,5.7-50.7c7.2-8.6,16.2-15.2,25.8-20.8c14.9-8.8,30.9-15.1,47.4-20.2C586.3,183.3,587.2,183.2,588.3,182.9z"/>
		<path class="st1" d="M580.7,338.6c-10.8,9.1-23.9,11-36.8,13c-41,6.4-82.2,7.6-123.5,3.8c-9.7-0.9-19.4-2.2-28.7-5.5
			c-3.1-1.1-7.2-2-7.5-6c-0.3-4,3.7-5.3,6.7-6.8c18-8.9,36.9-14.1,57-15.3c1.2-0.1,2.3-0.1,3.5-0.1c0.4,0,0.7,0.1,2.1,0.3
			c-5.6,1.6-10.3,2.9-15,4.4c-6.9,2.1-13.7,4.3-20,7.7c-1,0.5-2,1.2-3,1.9c-3.6,2.8-3.4,5.1,0.8,6.8c7.4,2.9,15.2,3.5,23,3.9
			c33.6,1.7,67.2,0,100.7-3.5c11.9-1.3,23.8-2.9,35.6-4.8C577.2,338.2,578.9,338,580.7,338.6z"/>
		<path class="st1" d="M563.5,431.4c-10.9,4.8-21.5,8-32.4,10.1c-26.9,5.3-53.8,5.8-80.6-1.1c-6.3-1.6-12.5-3.8-17.8-7.8
			c-6.8-5-6.6-10.3,0.4-14.9c3.5-2.3,7.4-3.8,11.7-5c-0.4,2.3-3,3.6-1.8,5.9c1.3,2.4,3.8,3.2,6.2,3.7c11.1,2.6,22.4,3.1,33.7,3.8
			c18.5,1,36.7-1.5,54.7-5c2.6-0.5,4.7-0.2,7,1.2C550.4,425.8,556.6,428.4,563.5,431.4z"/>
		<path class="st1" d="M435.8,368.5c0.2,1.2-0.6,1.5-1.1,2.1c-4.3,5.4-3.2,8.9,3.4,11c6.9,2.2,14.1,2.3,21.3,2.9
			c30.7,2.8,61.2,0.2,91.4-5.7c2.4-0.5,4.2-0.2,6,1.5c3.8,3.4,8.3,5.7,13.7,8.1c-8.8,2.9-17.1,4.7-25.4,6.3
			c-30.4,5.8-61,7.8-91.8,4.1c-9.8-1.2-19.6-2.9-28.7-7.1c-3.9-1.8-8.3-3.6-8.5-8.8c-0.2-5,4.1-7,7.6-9.1
			C427.4,371.4,431.5,369.8,435.8,368.5z"/>
		<path class="st1" d="M406.7,492.7c28.5,3.4,57,4.8,85.5,4.6c40.1-0.4,79.9-3.5,118.9-13.7c4.9-1.3,9.8-2.9,14.5-4.6
			c8-2.8,15.8-6.2,22.1-12.3c0,3.9-1.7,7.1-5.4,10.7c-4.8,4.6-10.5,7.7-16.6,10.1c-15.9,6.5-32.7,9.6-49.7,11.8
			c-41.5,5.3-83.2,5.6-124.8,2.3c-13.1-1-26.2-2.7-38.8-6.7C410.5,494.2,408.6,493.4,406.7,492.7z"/>
		<path class="st1" d="M585.3,397c0.8-2.1,2.5-2.4,3.8-3.1c11.1-6.2,21.7-13,30.6-22.3c4.1-4.3,7.6-9,9.8-14.5
			c3.5-8.6,3.3-17-2.9-24.4c-6.4-7.8-14.9-10.7-24.8-9.1c-2.4,0.4-4.8,1.1-7.7,1.9c1.2-2.4,2.9-3.5,4.8-4.2
			c11.8-4.4,23.5-4.7,34.7,1.6c13.9,7.7,18.5,23.2,11.3,37.4c-3.9,7.7-9.8,13.4-16.7,18.4C617.5,386.4,595.7,395.7,585.3,397z"/>
		<path class="st1" d="M499.4,320.3c0.1,0.1,0.1,0.1,0.2,0.2C499.6,320.4,499.5,320.4,499.4,320.3
			C499.5,320.4,499.4,320.3,499.4,320.3z"/>
		<path class="st1" d="M623.7,446.1c0.1,0,0.2,0.1,0.3,0.1c0-0.3-0.1-0.3-0.2,0C623.7,446.2,623.7,446.1,623.7,446.1z"/>
	</g>
</g>
</svg>
