<?xml version="1.0" encoding="utf-8"?>
<!-- Generator: Adobe Illustrator 24.1.2, SVG Export Plug-In . SVG Version: 6.00 Build 0)  -->
<svg version="1.1" id="Layer_1" xmlns="http://www.w3.org/2000/svg" xmlns:xlink="http://www.w3.org/1999/xlink" x="0px" y="0px"
	 viewBox="0 0 1030 729.9" style="enable-background:new 0 0 1030 729.9;" xml:space="preserve">
<style type="text/css">
	.st0{clip-path:url(#SVGID_2_);}
	.st1{fill:#E2EAF2;}
	.st2{fill:#F2F5F9;}
	.st3{fill:#B2BDCA;}
	.st4{fill:#9AA9B7;}
	.st5{fill:#C3CAD1;}
	.st6{fill:none;stroke:#708699;stroke-linecap:round;stroke-miterlimit:10;}
	.st7{fill:#8699AD;}
	.st8{fill:#FFFFFF;}
	.st9{fill:#EFA765;}
	.st10{fill:#F7C272;}
	.st11{fill:none;stroke:#C98839;stroke-linecap:round;stroke-miterlimit:10;}
	.st12{font-family:'Montserrat-Bold';}
	.st13{font-size:46.7307px;}
	.st14{fill:none;stroke:#A8C5E2;stroke-miterlimit:10;}
	.st15{fill:#5F799E;}
	.st16{fill:none;stroke:#EA7468;stroke-miterlimit:10;}
	.st17{fill:#EA7468;}
	.st18{fill:#D3E4F2;}
	.st19{fill:#F28B79;}
	.st20{fill:none;stroke:#C95B4C;stroke-linecap:round;stroke-miterlimit:10;}
	.st21{fill:#FCA697;}
	.st22{fill:#87A1CF;}
	.st23{fill:#A2BADD;}
	.st24{fill:none;stroke:#3A6599;stroke-linecap:round;stroke-miterlimit:10;}
	.st25{opacity:0.46;fill:#FCA695;}
	.st26{fill:#5A2402;}
	.st27{fill:none;stroke:#DB7665;stroke-linecap:round;stroke-miterlimit:10;}
	.st28{fill:#FCA695;}
	.st29{fill:#FCA697;stroke:#DB7665;stroke-linecap:round;stroke-miterlimit:10;}
	.st30{fill:#C4BA8C;}
	.st31{fill:none;stroke:#706536;stroke-linecap:round;stroke-miterlimit:10;}
	.st32{opacity:0.57;fill:#C4BA8C;}
	.st33{fill:#E9EEFF;}
</style>
<g>
	<defs>
		<rect id="SVGID_1_" x="147" width="724" height="729.9"/>
	</defs>
	<clipPath id="SVGID_2_">
		<use xlink:href="#SVGID_1_"  style="overflow:visible;"/>
	</clipPath>
	<g class="st0">
		<rect x="137.6" y="673.6" class="st1" width="779.5" height="125.6"/>
		<ellipse class="st2" cx="562.2" cy="365" rx="246.1" ry="248.1"/>
		<g>
			<g>
				<path class="st3" d="M457.1,684.5v69.5c0,6-49.4,10.9-110.3,10.9c-60.9,0-110.3-4.9-110.3-10.9v-69.5H457.1z"/>
				<path class="st4" d="M427.2,695.5v50.7c0,4.4-36,8-80.4,8c-44.4,0-80.4-3.6-80.4-8v-50.7H427.2z"/>
				<ellipse class="st5" cx="346.8" cy="684.5" rx="110.3" ry="10.9"/>
				<path class="st6" d="M457.1,684.5c0,6-49.4,10.9-110.3,10.9c-60.9,0-110.3-4.9-110.3-10.9"/>
				<path class="st7" d="M444,667.2v11.6c0,5.3-43.5,9.6-97.1,9.6c-53.6,0-97.1-4.3-97.1-9.6v-11.6H444z"/>
				<ellipse class="st3" cx="346.8" cy="667.2" rx="97.1" ry="9.6"/>
				<ellipse class="st8" cx="418.4" cy="724.8" rx="8" ry="8"/>
				<ellipse class="st8" cx="383" cy="724.8" rx="8" ry="8"/>
				<ellipse class="st8" cx="347.5" cy="724.8" rx="8" ry="8"/>
			</g>
			<g>
				<path class="st3" d="M457.1,601.2v69.5c0,6-49.4,10.9-110.3,10.9c-60.9,0-110.3-4.9-110.3-10.9v-69.5H457.1z"/>
				<path class="st4" d="M427.2,612.1v50.7c0,4.4-36,8-80.4,8c-44.4,0-80.4-3.6-80.4-8v-50.7H427.2z"/>
				<ellipse class="st5" cx="346.8" cy="601.2" rx="110.3" ry="10.9"/>
				<path class="st6" d="M457.1,601.2c0,6-49.4,10.9-110.3,10.9c-60.9,0-110.3-4.9-110.3-10.9"/>
				<path class="st7" d="M444,583.9v11.6c0,5.3-43.5,9.6-97.1,9.6c-53.6,0-97.1-4.3-97.1-9.6v-11.6H444z"/>
				<ellipse class="st3" cx="346.8" cy="583.9" rx="97.1" ry="9.6"/>
				<ellipse class="st8" cx="418.4" cy="641.5" rx="8" ry="8"/>
				<ellipse class="st8" cx="383" cy="641.5" rx="8" ry="8"/>
				<ellipse class="st8" cx="347.5" cy="641.5" rx="8" ry="8"/>
			</g>
			<g>
				<path class="st3" d="M457.1,517.9v69.5c0,6-49.4,10.9-110.3,10.9c-60.9,0-110.3-4.9-110.3-10.9v-69.5H457.1z"/>
				<path class="st4" d="M427.2,528.8v50.7c0,4.4-36,8-80.4,8c-44.4,0-80.4-3.6-80.4-8v-50.7H427.2z"/>
				<ellipse class="st5" cx="346.8" cy="517.9" rx="110.3" ry="10.9"/>
				<path class="st6" d="M457.1,517.9c0,6-49.4,10.9-110.3,10.9c-60.9,0-110.3-4.9-110.3-10.9"/>
				<path class="st7" d="M444,500.6v11.6c0,5.3-43.5,9.6-97.1,9.6c-53.6,0-97.1-4.3-97.1-9.6v-11.6H444z"/>
				<ellipse class="st3" cx="346.8" cy="500.6" rx="97.1" ry="9.6"/>
				<ellipse class="st8" cx="418.4" cy="558.2" rx="8" ry="8"/>
				<ellipse class="st8" cx="383" cy="558.2" rx="8" ry="8"/>
				<ellipse class="st8" cx="347.5" cy="558.2" rx="8" ry="8"/>
			</g>
			<g>
				<path class="st3" d="M457.1,434.6v69.5c0,6-49.4,10.9-110.3,10.9c-60.9,0-110.3-4.9-110.3-10.9v-69.5H457.1z"/>
				<path class="st4" d="M427.2,445.5v50.7c0,4.4-36,8-80.4,8c-44.4,0-80.4-3.6-80.4-8v-50.7H427.2z"/>
				<ellipse class="st5" cx="346.8" cy="434.6" rx="110.3" ry="10.9"/>
				<path class="st6" d="M457.1,434.6c0,6-49.4,10.9-110.3,10.9c-60.9,0-110.3-4.9-110.3-10.9"/>
				<ellipse class="st8" cx="418.4" cy="474.8" rx="8" ry="8"/>
				<ellipse class="st8" cx="383" cy="474.8" rx="8" ry="8"/>
				<ellipse class="st8" cx="347.5" cy="474.8" rx="8" ry="8"/>
			</g>
		</g>
		<g>
			<g>
				<path class="st9" d="M431.1,230H222.9c-4.5,0-8.2-3.7-8.2-8.2V79.6h215.5c5,0,9.1,4.1,9.1,9.1v133.1
					C439.3,226.3,435.6,230,431.1,230z"/>
				<path class="st10" d="M429.7,230H229.4c-7.6,0-13.2-7-11.6-14.5l18.6-88.3c1.3-6.1,6.6-10.5,12.9-10.5h197.8
					c8.4,0,14.6,7.8,12.9,16l-18.5,87.8C440.1,226,435.3,230,429.7,230z"/>
				<path class="st11" d="M217.7,215.5l18.6-88.3c1.3-6.1,6.6-10.5,12.9-10.5h197.8c8.4,0,14.6,7.8,12.9,16"/>
				<path class="st9" d="M307.3,56.4h-87.4c-2.9,0-5.2,2.3-5.2,5.2v18h102V65.8C316.7,60.6,312.5,56.4,307.3,56.4z"/>
				<line class="st11" x1="240.9" y1="79.6" x2="316.7" y2="79.6"/>
			</g>
			<text transform="matrix(0.9919 0 0 1 297.9287 185.0332)" class="st8 st12 st13">SQL</text>
		</g>
		<g>
			<polyline class="st14" points="308.1,236.6 308.1,287.9 399.4,287.5 399.4,423.7 			"/>
			<path class="st15" d="M308.1,246.8L308.1,246.8c-5.6,0-10.1-4.6-10.1-10.2v-10.2h20.3v10.2C318.2,242.3,313.7,246.8,308.1,246.8z
				"/>
			<path class="st15" d="M409.6,426.4h-20.3v-7.3c0-5.6,4.5-10.2,10.1-10.2l0,0c5.6,0,10.1,4.6,10.1,10.2V426.4z"/>
		</g>
		<g>
			<g>
				<ellipse class="st16" cx="399.4" cy="287.5" rx="26.1" ry="26.3"/>
			</g>
			<ellipse class="st17" cx="399.4" cy="287.5" rx="11.6" ry="11.7"/>
		</g>
		<g>
			<rect x="186.9" y="314.7" class="st1" width="125.6" height="166.1"/>
			<g>
				<rect x="211.3" y="328.9" class="st8" width="76.9" height="8.9"/>
				<rect x="211.3" y="350.3" class="st8" width="76.9" height="8.9"/>
				<rect x="211.3" y="371.8" class="st8" width="76.9" height="8.9"/>
				<rect x="211.3" y="393.2" class="st8" width="76.9" height="8.9"/>
				<rect x="211.3" y="414.7" class="st8" width="76.9" height="8.9"/>
				<rect x="211.3" y="436.2" class="st8" width="76.9" height="8.9"/>
				<rect x="211.3" y="457.6" class="st8" width="76.9" height="8.9"/>
			</g>
		</g>
		<g>
			<g>
				<path class="st18" d="M675.2,74.1c-32.5,0-58.8,26.6-58.8,59.3c0,32.8,26.3,59.3,58.8,59.3c32.5,0,58.9-26.6,58.9-59.3
					C734.1,100.7,707.7,74.1,675.2,74.1z M675.2,172c-21.1,0-38.2-17.2-38.2-38.5c0-21.3,17.1-38.5,38.2-38.5
					c21.1,0,38.2,17.2,38.2,38.5C713.5,154.7,696.4,172,675.2,172z"/>
				<rect x="665.4" y="37.8" class="st18" width="19.7" height="40.6"/>
				<polygon class="st18" points="643.5,87.5 629.6,101.5 601.2,72.8 615.1,58.8 				"/>
				
					<rect x="590.5" y="113.3" transform="matrix(6.123234e-17 -1 1 6.123234e-17 466.9756 733.8909)" class="st18" width="19.8" height="40.2"/>
				<polygon class="st18" points="629.6,165.4 643.5,179.5 615.1,208.1 601.2,194.1 				"/>
				
					<rect x="665.4" y="188.6" transform="matrix(-1 -1.224647e-16 1.224647e-16 -1 1350.4973 417.7654)" class="st18" width="19.7" height="40.6"/>
				<polygon class="st18" points="707,179.5 720.9,165.4 749.3,194.1 735.4,208.1 				"/>
				
					<rect x="740.1" y="113.3" transform="matrix(-1.836970e-16 1 -1 -1.836970e-16 883.5217 -616.6063)" class="st18" width="19.8" height="40.2"/>
				<polygon class="st18" points="720.9,101.5 707,87.5 735.4,58.8 749.3,72.8 				"/>
				<ellipse class="st18" cx="675.3" cy="133.5" rx="20.6" ry="20.8"/>
			</g>
			<g>
				<path class="st18" d="M539.3,188.1c-13.1,0-23.7,10.7-23.7,23.9s10.6,23.9,23.7,23.9S563,225.2,563,212S552.4,188.1,539.3,188.1
					z M539.3,227.5c-8.5,0-15.4-6.9-15.4-15.5c0-8.6,6.9-15.5,15.4-15.5c8.5,0,15.4,6.9,15.4,15.5
					C554.7,220.5,547.8,227.5,539.3,227.5z"/>
				<rect x="535.3" y="173.4" class="st18" width="7.9" height="16.3"/>
				<polygon class="st18" points="526.5,193.5 520.9,199.1 509.5,187.6 515.1,181.9 				"/>
				
					<rect x="505.2" y="203.9" transform="matrix(6.123234e-17 -1 1 6.123234e-17 297.2065 721.1486)" class="st18" width="8" height="16.2"/>
				<polygon class="st18" points="520.9,224.8 526.5,230.5 515.1,242 509.5,236.4 				"/>
				
					<rect x="535.3" y="234.2" transform="matrix(-1 -1.224647e-16 1.224647e-16 -1 1078.5823 484.6602)" class="st18" width="7.9" height="16.3"/>
				<polygon class="st18" points="552.1,230.5 557.7,224.8 569.1,236.4 563.5,242 				"/>
				
					<rect x="565.4" y="203.9" transform="matrix(-1.836970e-16 1 -1 -1.836970e-16 781.3759 -357.4338)" class="st18" width="8" height="16.2"/>
				<polygon class="st18" points="557.7,199.1 552.1,193.5 563.5,181.9 569.1,187.6 				"/>
				<ellipse class="st18" cx="539.3" cy="212" rx="8.3" ry="8.4"/>
			</g>
		</g>
		<g>
			<path class="st19" d="M421.4,289c-1.4,4.7-6.9,13.5-5.8,17.2c1.1,3.7,16.8,11.1,20.5,10.7c3.7-0.4,26.7-12.4,26.7-12.4l-6.6-21.2
				L421.4,289z"/>
			<path class="st20" d="M430.8,296.7c-1.1,2.2,0,7.4,0,7.4l6.2,7.6"/>
			<polyline class="st20" points="441.5,296.7 441.5,302.4 446.8,309.7 			"/>
			<path class="st21" d="M563.1,394.1l-7.5,14.3c0,0-59.7-93.1-72.1-106L463,328.8c0,0,37.4,152.5,83.9,162.6
				c48.9,10.6,66-31.2,77.6-86.4S563.1,394.1,563.1,394.1z"/>
			<path class="st22" d="M683.9,265.5c0,0-63.8,9.9-75.4,17.5c-11.6,7.6-52.9,117.1-52.9,117.1l98.4,15.9l61.3-39.3L683.9,265.5z"/>
			<path class="st22" d="M718.3,257.8c43.4,4.3,85.5,13.7,94,30c8.4,16.3,39.1,146.6,39.1,146.6h-74.7l-76-150.5l-0.9-20.1
				L718.3,257.8z"/>
			<path class="st22" d="M615.3,293.1c0,0,112.8-22.7,185.6,0l-15,101l-2.7,111.1H634.9l-6.2-111.1L615.3,293.1z"/>
			<path class="st23" d="M627,359.5c33.7,2.5,139.9-7.6,139.9-7.6l10.4,50.6c0,0-99,13.8-152.7,2.6L627,359.5z"/>
			<g>
				<path class="st24" d="M761.8,327.9c3,14.4,21.9,106.5,21.9,106.5"/>
				<line class="st24" x1="630.9" y1="340.7" x2="625.7" y2="378.3"/>
			</g>
			<path class="st8" d="M743.3,260.9c0,0-9.7,41.4-49.2,40.7c-37.4-0.7-34.8-32.3-34.8-32.3s19.2-8.2,41-11.4
				C722,254.6,743.3,260.9,743.3,260.9z"/>
			<g>
				<g>
					<g>
						<g>
							<path class="st21" d="M677.6,258.5c0,0,0,1.4,0,13.7c0,12.4,12.7,20.8,30,12c14.7-7.5,16.4-16.7,16.4-24.3
								c0-7.6,0-38.9,0-38.9l-46.4,30.9L677.6,258.5z"/>
							<path class="st25" d="M710.6,238.6c-2.6,21.2-16.5,34.5-33,34.5c0-0.2,0-0.4,0-0.6v-38.7L710.6,238.6z"/>
						</g>
						<path class="st21" d="M661.4,157.8c-26,17.4-25.2,41.1-21.3,60.7c4.2,21.1,18.8,36,37.5,36c25.3,0,46-15.8,48.1-40.4
							s-3.7-53.4-22.4-56.3C684.5,154.8,661.4,157.8,661.4,157.8z"/>
						<path class="st26" d="M659.3,197.6c0,2.3-1.2,4.2-2.6,4.2c-1.4,0-2.6-1.9-2.6-4.2c0-2.3,1.2-4.2,2.6-4.2
							C658.1,193.4,659.3,195.3,659.3,197.6z"/>
						<path class="st26" d="M689.1,197.6c0,2.3-1.2,4.2-2.6,4.2c-1.4,0-2.6-1.9-2.6-4.2c0-2.3,1.2-4.2,2.6-4.2
							C687.9,193.4,689.1,195.3,689.1,197.6z"/>
						<path class="st26" d="M682.1,178.5c6.2-2.7,15.8,0.4,16.6,4.5c0.9,4-0.7,6.1-2.5,6.1c-1.8,0-6.1-5.1-14.5-3
							C678.8,186.8,676.6,180.9,682.1,178.5z"/>
						<path class="st26" d="M662.3,178.5c-5.1-2.7-13.1,0.4-13.9,4.5c-0.7,4,0.6,6.1,2,6.1s5.1-5.1,12.1-3
							C665.1,186.8,666.9,180.9,662.3,178.5z"/>
						<g>
							<path class="st21" d="M722.1,222.9c11.1-1.1,17.2-16.3,14.3-23.7c-3-7.4-12.8-7.1-18.7,4.7"/>
							<path class="st25" d="M730.9,202.1c2.2,1.3,4.1,5.8-0.9,10c-5,4.2-10,3.8-10,3.8s-0.8-5.8,2.3-9.2
								C725.6,203.2,729.5,201.1,730.9,202.1z"/>
							<path class="st27" d="M721.1,208.6c5.2-8.9,10.3-7.4,11.3-5.2"/>
							<path class="st27" d="M724,205.2c4-1.2,4.2,4.1,2.7,5.4"/>
						</g>
						<path class="st27" d="M677.6,254.5c21.7,0.7,39.4-14.4,43.5-24.5"/>
					</g>
					<path class="st28" d="M680.8,225.4c1.8,0,6.6-3.6,7.2-2.4c0.6,1.2-1.2,3.7-2.9,4.9C683.3,229,679,225.4,680.8,225.4z"/>
					<path class="st25" d="M704,206.3c0,2.3-2.4,4.3-5.4,4.3c-3,0-5.4-1.9-5.4-4.3c0-2.3,2.4-4.3,5.4-4.3
						C701.5,202.1,704,204,704,206.3z"/>
					<path class="st25" d="M656.7,206.3c0,2.3-2.4,4.3-5.4,4.3c-3,0-5.4-1.9-5.4-4.3c0-2.3,2.4-4.3,5.4-4.3
						C654.3,202.1,656.7,204,656.7,206.3z"/>
				</g>
				<path class="st26" d="M726.8,194.8c-10.4,5.2-11.1,15.8-11.1,15.8s-6.2-17.4-2.4-30.5c0,0-10.8-6.8-14.7-16.4
					c0,0-15.4,11.6-31.2,10.4s-2.2-12.8-2.2-12.8s-18.4,16.9-23.5,19.6c0,0-2.8-14.8,0-19.6c2.8-4.8,6.6-6.8,6.6-6.8
					s-4.2-9.2,8.4-15.6c12.6-6.4,49.6-12.1,70.9,12.8s5.6,43.6,5.6,43.6L726.8,194.8z"/>
				<path class="st26" d="M713.4,200.4c-7.1,31.8-22.9,40.4-42.5,41.8c-17.2,1.2-23.8-8.2-26.8-12.6c-0.6-0.9-1.7-2.6-2-3.4
					c-0.7-1.8-0.8-2.5-0.8-2.5s-1,35.7,27.1,40.7c19.5,3.5,28.8-3,40.3-14.3c11.5-11.3,16.3-27.4,13.3-27.3c0,0-5.3-3.5-6.5-13.1
					c-1.2-9.6,4.6-17.5,4.4-18.3C719.8,190.7,713.4,200.4,713.4,200.4z"/>
				<path class="st26" d="M698,234.1c-12.8-12-39.5-12.1-45.7,5.5l-4.1-1.3c0,0,7.7-24.5,28.1-22.9s25.9,17.3,25.9,17.3L698,234.1z"
					/>
				<path class="st29" d="M669.9,195.7c-0.8,4.3-3.1,13.9-4.2,18.4c-0.3,1.3,0.6,2.5,1.9,2.7c2.7,0.3,8.3-1.7,10.1-2.5"/>
				<path class="st8" d="M669.5,228.5c3.5-0.1,8.6-1.1,11.1-1.9c0.8-0.2,1.5,0.5,1.3,1.2c-0.5,1.9-1.8,4.4-5.7,5.3
					c-4.1,0.9-6.4-1.3-7.5-3C668.3,229.4,668.7,228.5,669.5,228.5z"/>
			</g>
			<path class="st30" d="M822.2,759.2h-93.4l-25.6-158.8l-8.7,158.8h-85.3c-4.7-94.2,14-197.9,22-237.4c2.2-10.6,3.6-16.6,3.6-16.6
				h148.4c2.2,9.4,4.6,22.2,7.2,37.1C804.3,621.5,822.2,759.2,822.2,759.2z"/>
			<g>
				<polyline class="st31" points="688,505.2 688,583.8 700.7,583.8 700.7,528.7 				"/>
				<line class="st31" x1="772.8" y1="507.3" x2="807.7" y2="759.2"/>
				<line class="st31" x1="688" y1="583.8" x2="679.2" y2="759.2"/>
			</g>
			<path class="st32" d="M790.5,542.3l-0.2,2.2l-158.9-22.7l0,0c2.2-10.6,3.6-16.6,3.6-16.6h148.4
				C785.4,514.7,787.9,527.4,790.5,542.3z"/>
			<g>
				<path class="st33" d="M719.8,451.5H614.2c-2.1,0-3.7-1.7-3.7-3.7v-65.7c0-2.1,1.7-3.7,3.7-3.7h105.7c2.1,0,3.7,1.7,3.7,3.7v65.7
					C723.6,449.8,721.9,451.5,719.8,451.5z"/>
				<path class="st8" d="M713.9,451.5H608.3c-2.1,0-3.7-1.7-3.7-3.7v-65.7c0-2.1,1.7-3.7,3.7-3.7h105.7c2.1,0,3.7,1.7,3.7,3.7v65.7
					C717.7,449.8,716,451.5,713.9,451.5z"/>
				<path class="st33" d="M704.4,442.6h-86.6c-2.1,0-3.7-1.7-3.7-3.7v-47.9c0-2.1,1.7-3.7,3.7-3.7h86.6c2.1,0,3.7,1.7,3.7,3.7v47.9
					C708.1,440.9,706.4,442.6,704.4,442.6z"/>
			</g>
			<path class="st21" d="M839.2,434.5c4.3,16.1,12.1,67.6,0,81.3c-21.7,24.5-159.9-34.4-159.9-34.4l8.9-36.4l96.5,3.8l-0.8-14.5
				L839.2,434.5z"/>
			<path class="st21" d="M688.1,445.1c0,0-2.7-7.4-4.4-13.2c-1.7-5.8-9.8-8.3-13.6-14.6c-3.8-6.3-7.8,2.2-2.9,9.3
				c4.9,7.1,3.7,6.2,3.7,6.2s-14.5-5.7-24.5-17.7c-5.6-6.7-9.1,5.7-3.5,15c0,0-4-16.8-8-15s-4.6,15.9,2.1,24.4c0,0-7.5-12.5-9.8-9.4
				c-2.3,3.1,5.9,25.2,15.7,30.5c0,0-13.4-18.7-15.7-15.4c-2.3,3.3,16.3,29.6,54.6,36.2C720.2,487.9,688.1,445.1,688.1,445.1z"/>
			<path class="st29" d="M640.2,421.1c2.5,10.9,8.9,16.6,8.9,16.6"/>
			<path class="st29" d="M633.7,434.3c3.7,6.5,11,13.2,11,13.2"/>
			<path class="st29" d="M632.4,447.5c3.4,5.9,10.4,8.1,10.4,8.1"/>
			<path class="st21" d="M483.5,302.4c-2.2-4-12.8-23.1-18.6-25.3s-27.9,2.2-27.9,2.2s-30.6,5.2-37.5,3.7c0,0-1.7,11.9,24.5,10.3
				c17.5-1.1,25.9-3.6,25.9-3.6l5.5,10.5c0,0-5.5,9.8-11.7,10.9c-6.2,1.1-20.8,0.7-21.2,6.3c-0.4,5.5,25.2,7,25.2,7l15.3,4.6
				L483.5,302.4z"/>
			<path class="st29" d="M807.7,469.2c0,0-7.7-13.8-23.1-20.4"/>
			<path class="st29" d="M555.6,408.4c9.4,15,13.2,39.2,13.2,39.2"/>
			<path class="st29" d="M463,328.8c5.4-7,11-14.2,11-14.2"/>
		</g>
	</g>
</g>
</svg>
